<svg width="16" height="16" viewBox="0 0 16 16" fill="none" xmlns="http://www.w3.org/2000/svg">
<path d="M1 4C1 2.89543 1.89543 2 3 2C4.10457 2 5 2.89543 5 4V12C5 13.1046 4.10457 14 3 14C1.89543 14 1 13.1046 1 12V4Z" fill="#1F90F9"/>
<path d="M11 4C11 2.89543 11.8954 2 13 2C14.1046 2 15 2.89543 15 4V12C15 13.1046 14.1046 14 13 14C11.8954 14 11 13.1046 11 12V4Z" fill="#1F90F9"/>
<path d="M6 5C6 3.89543 6.89543 3 8 3C9.10457 3 10 3.89543 10 5V9C10 10.1046 9.10457 11 8 11C6.89543 11 6 10.1046 6 9V5Z" fill="#1F90F9"/>
</svg>
